<svg xmlns="http://www.w3.org/2000/svg" width="24" height="24" viewBox="0 0 24 24">
	<g fill="none">
		<path fill="url(#tokenBrandedDsm0)" d="M7.209 3.36C7.63 3.079 8.064 3 8.446 3c2.351 0 4.978 1.243 7.008 2.959c2.02 1.704 3.538 3.96 3.538 6.051c0 2.115-1.631 3.949-3.583 5.22c-1.968 1.282-4.376 2.081-6.136 2.081a3.68 3.68 0 0 1-2.233-.68a4.17 4.17 0 0 1-1.294-1.67c-.596-1.294-.73-2.88-.73-4.101c0-4.219.432-6.66 1.068-8.06a3.3 3.3 0 0 1 1.125-1.44m-.507 1.715c-.579 1.26-1.108 3.583-1.108 7.785c0 1.192.225 2.66.76 3.825a3.9 3.9 0 0 0 1.085 1.513c.462.337 1.058.55 1.834.55c1.597 0 3.88-.843 5.765-2.075c1.901-1.237 3.375-2.89 3.375-4.668c0-1.8-1.434-3.881-3.398-5.54c-1.946-1.648-4.432-2.903-6.558-2.903c-.286 0-.579.057-.866.248a3.1 3.1 0 0 0-.883 1.265z" />
		<path fill="url(#tokenBrandedDsm1)" d="M8.372 4.485c.422-.281.855-.36 1.237-.36c2.357 0 4.978 1.243 7.009 2.958c2.019 1.705 3.538 3.96 3.538 6.053c0 2.114-1.632 3.948-3.583 5.219c-1.969 1.282-4.37 2.081-6.137 2.081a3.68 3.68 0 0 1-2.233-.68a4.17 4.17 0 0 1-1.293-1.67c-.597-1.294-.732-2.88-.732-4.101c0-4.219.434-6.66 1.07-8.06a3.3 3.3 0 0 1 1.124-1.44M7.866 6.2c-.58 1.26-1.108 3.583-1.108 7.785c0 1.192.225 2.66.76 3.825a3.9 3.9 0 0 0 1.085 1.513c.466.337 1.057.55 1.833.55c1.603 0 3.881-.843 5.771-2.075c1.895-1.237 3.364-2.89 3.364-4.668c0-1.8-1.43-3.881-3.392-5.54c-1.952-1.648-4.427-2.903-6.564-2.903c-.287 0-.58.057-.866.248A3.1 3.1 0 0 0 7.866 6.2" />
		<path fill="url(#tokenBrandedDsm2)" d="M6.044 5.047c.422-.28.855-.36 1.237-.36c2.351 0 4.978 1.244 7.008 2.959c2.02 1.704 3.538 3.96 3.538 6.052c0 2.115-1.631 3.948-3.583 5.22c-1.968 1.282-4.376 2.08-6.136 2.08a3.68 3.68 0 0 1-2.233-.68a4.17 4.17 0 0 1-1.3-1.67c-.59-1.294-.73-2.88-.73-4.1c0-4.22.438-6.66 1.074-8.06a3.3 3.3 0 0 1 1.125-1.44m-.507 1.716c-.579 1.26-1.108 3.583-1.108 7.784c0 1.193.225 2.66.76 3.825a3.9 3.9 0 0 0 1.085 1.513c.461.337 1.058.551 1.834.551c1.597 0 3.88-.843 5.765-2.075c1.896-1.238 3.375-2.891 3.375-4.669c0-1.8-1.435-3.88-3.398-5.54C11.9 6.504 9.419 5.25 7.282 5.25c-.281 0-.58.056-.86.247a3.14 3.14 0 0 0-.89 1.272z" />
		<defs>
			<linearGradient id="tokenBrandedDsm0" x1="3.845" x2="20.156" y1="12" y2="12" gradientUnits="userSpaceOnUse">
				<stop stop-color="#1c9d00" />
				<stop offset="1" stop-color="#0059f9" />
			</linearGradient>
			<linearGradient id="tokenBrandedDsm1" x1="3.844" x2="20.155" y1="12" y2="12" gradientUnits="userSpaceOnUse">
				<stop stop-color="#1c9d00" />
				<stop offset="1" stop-color="#0059f9" />
			</linearGradient>
			<linearGradient id="tokenBrandedDsm2" x1="3.844" x2="20.156" y1="12" y2="12" gradientUnits="userSpaceOnUse">
				<stop stop-color="#1c9d00" />
				<stop offset="1" stop-color="#0059f9" />
			</linearGradient>
		</defs>
	</g>
</svg>